<?xml version="1.0" encoding="utf-8"?>
<!-- Generator: Adobe Illustrator 21.0.2, SVG Export Plug-In . SVG Version: 6.00 Build 0)  -->
<svg version="1.1" xmlns="http://www.w3.org/2000/svg" xmlns:xlink="http://www.w3.org/1999/xlink" x="0px" y="0px"
	 viewBox="0 0 24 24" style="enable-background:new 0 0 24 24;" xml:space="preserve">
<style type="text/css">
	.st0{fill:none;}
	.st1{fill:#128DBE;}
</style>
<g id="Layer_1">
	<polygon class="st0" points="12,2 23,21 1,21 	"/>
</g>
<g id="Layer_2">
	<g>
		<path class="st1" d="M23,1.4c-0.7-0.7-1.6-1-2.5-1c-0.9,0-1.8,0.4-2.5,1l-9.6,9.6c-1,1-1,2.6,0,3.5c0.5,0.5,1.1,0.7,1.8,0.7
			c0.7,0,1.3-0.3,1.8-0.7l7-7c0.2-0.2,0.2-0.4,0-0.6s-0.4-0.2-0.6,0l-7,7c-0.6,0.6-1.7,0.6-2.3,0c-0.6-0.6-0.6-1.7,0-2.3L18.5,2
			c0.5-0.5,1.2-0.8,1.9-0.8s1.4,0.3,1.9,0.8c1.1,1.1,1.1,2.8,0,3.8l-12,12c-1.5,1.5-3.8,1.5-5.3,0C4.4,17,4,16.1,4,15.1
			s0.4-1.9,1.1-2.6l9.4-9.4c0.2-0.2,0.2-0.4,0-0.6c-0.2-0.2-0.4-0.2-0.6,0l-9.4,9.4c-0.9,0.9-1.3,2-1.3,3.2s0.5,2.4,1.3,3.2
			c0.9,0.9,2.1,1.3,3.2,1.3s2.4-0.4,3.2-1.3l12-12C24.3,5,24.3,2.7,23,1.4z"/>
	</g>
</g>
</svg>
