<svg xmlns="http://www.w3.org/2000/svg" viewBox="0 0 50.2 58"><title>ticket-open</title><polygon points="30.4 4.8 28 4.8 26.6 4.8 18.1 4.8 17 4.8 14.3 4.8 0 4.8 0 58 44.6 58 44.6 4.8 30.4 4.8" style="fill:#aaa79d"/><polygon points="36.2 8 36.2 8 29.8 8 28.3 8 3 8 3 8 3 55.5 3 55.5 41.9 55.5 41.9 55.5 41.9 19.5 41.9 8 36.2 8" style="fill:#edeada"/><path d="M35.4,4.5A2,2,0,0,1,34,3.1a4.26,4.26,0,0,0-8.2,0,2,2,0,0,1-1.4,1.4,4.29,4.29,0,0,0-3.1,4.1v2.9H38.5V8.6A4.29,4.29,0,0,0,35.4,4.5ZM29.9,5.8a1.37,1.37,0,0,1-1.4-1.4,1.4,1.4,0,1,1,2.8,0A1.43,1.43,0,0,1,29.9,5.8Z" transform="translate(-7.2)" style="fill:#cdd7de"/><line x1="10" y1="20.1" x2="33.6" y2="20.1" style="fill:none;stroke:#cec9ae;stroke-miterlimit:10;stroke-width:1.5px"/><line x1="10" y1="29.4" x2="33.6" y2="29.4" style="fill:none;stroke:#cec9ae;stroke-miterlimit:10;stroke-width:1.5px"/><line x1="10" y1="38.7" x2="33.6" y2="38.7" style="fill:none;stroke:#cec9ae;stroke-miterlimit:10;stroke-width:1.5px"/><line x1="10" y1="48" x2="23.6" y2="48" style="fill:none;stroke:#cec9ae;stroke-miterlimit:10;stroke-width:1.5px"/><polygon points="27.5 41.5 45.2 23.8 47.9 26.4 30.1 44.1 27.5 41.5" style="fill:#3788d1"/><path d="M53.8,30.1a.37.37,0,0,1-.3-.1l-1-1a.49.49,0,1,1,.7-.7l1,1a.48.48,0,0,1,0,.7.76.76,0,0,1-.4.1" transform="translate(-7.2)" style="fill:#48b1ff"/><path d="M30.8,48.5a.37.37,0,0,1-.3-.1.48.48,0,0,1,0-.7l.7-.7a.49.49,0,1,1,.7.7l-.7.7a.76.76,0,0,1-.4.1" transform="translate(-7.2)" style="fill:#48b1ff"/><polygon points="48.9 24.7 47.5 26.1 45.6 24.1 46.9 22.8 48.9 24.7" style="fill:#48b1ff"/><polygon points="40 38.2 39 37.2 48.2 28 49.2 29 40 38.2" style="fill:#48b1ff"/><polygon points="28.2 46.1 25.5 43.5 27.5 41.5 30.1 44.1 28.2 46.1" style="fill:#48b1ff"/><path d="M33.1,43.8h0l2,2h0a3.36,3.36,0,0,1-2.9,1.6h-.7v-.7a3,3,0,0,1,1.6-2.9" transform="translate(-7.2)" style="fill:#3788d1"/><polygon points="48.9 24.7 46.9 22.8 48.2 21.5 50.2 23.4 48.9 24.7" style="fill:#3788d1"/></svg>